<svg width="14" height="12" viewBox="0 0 14 12" fill="none" xmlns="http://www.w3.org/2000/svg">
<path d="M3.14274 4.51667L2.09275 5.1C1.9372 5.1889 1.77331 5.2139 1.60109 5.175C1.42886 5.1361 1.30942 5.04443 1.24275 4.9L0.0927543 2.91667C0.00386431 2.7611 -0.0211357 2.62777 0.0177543 2.51667C0.056641 2.40557 0.148308 2.30557 0.292754 2.21667L4.09274 0H5.15941C5.28164 0 5.37887 0.0361099 5.45107 0.108333C5.52331 0.180557 5.55941 0.277777 5.55941 0.4V0.65C5.55941 1.07222 5.69274 1.41667 5.95941 1.68333C6.22607 1.95 6.57054 2.08333 6.99274 2.08333C7.41497 2.08333 7.75664 1.95 8.01774 1.68333C8.27887 1.41667 8.40941 1.07222 8.40941 0.65V0.4C8.40941 0.277777 8.44554 0.180557 8.51774 0.108333C8.58997 0.0361099 8.68721 0 8.80941 0H9.87607L13.6761 2.21667C13.8205 2.30557 13.9094 2.40557 13.9427 2.51667C13.9761 2.62777 13.9539 2.7611 13.8761 2.91667L12.7094 4.9C12.6427 5.04443 12.5039 5.1389 12.2927 5.18333C12.0816 5.22777 11.915 5.2111 11.7927 5.13333L10.7594 4.48333V11.35C10.7594 11.5278 10.6927 11.6806 10.5594 11.8083C10.4261 11.9361 10.2705 12 10.0927 12H3.79274C3.61497 12 3.46221 11.9361 3.33441 11.8083C3.20664 11.6806 3.14274 11.5278 3.14274 11.35V4.51667ZM4.14274 2.81667V11H9.75941V2.81667L12.0594 4.1L12.8094 2.8L9.69274 1.01667H9.39274C9.30387 1.61667 9.03997 2.1111 8.60107 2.5C8.16221 2.8889 7.62607 3.08333 6.99274 3.08333C6.35941 3.08333 5.82054 2.8889 5.37607 2.5C4.93164 2.1111 4.66497 1.61667 4.57607 1.01667H4.27607L1.15942 2.8L1.90942 4.1L4.14274 2.81667Z" fill="#40361F"/>
</svg>
