<svg width="16" height="19" viewBox="0 0 16 19" fill="none" xmlns="http://www.w3.org/2000/svg">
<path d="M4.97469 8.16667V3.375C4.97469 2.6125 5.27759 1.88124 5.81676 1.34207C6.35592 0.802901 7.08719 0.5 7.84969 0.5C8.61219 0.5 9.34345 0.802901 9.88262 1.34207C10.4218 1.88124 10.7247 2.6125 10.7247 3.375V8.16667M2.4169 5.29167H13.2834C13.5598 5.29163 13.8329 5.35136 14.084 5.46675C14.3351 5.58215 14.5583 5.75048 14.7382 5.9602C14.9182 6.16993 15.0507 6.41609 15.1266 6.68181C15.2025 6.94753 15.2201 7.22652 15.1781 7.49967L13.9754 15.312C13.8709 15.9909 13.5269 16.61 13.0055 17.0572C12.4841 17.5044 11.8198 17.7502 11.1329 17.75H4.56644C3.8797 17.75 3.21565 17.5041 2.69446 17.0569C2.17327 16.6097 1.82936 15.9908 1.72498 15.312L0.522271 7.49967C0.480265 7.22652 0.497823 6.94753 0.573739 6.68181C0.649655 6.41609 0.782134 6.16993 0.962094 5.9602C1.14205 5.75048 1.36524 5.58215 1.61635 5.46675C1.86745 5.35136 2.14054 5.29163 2.4169 5.29167Z" stroke="#40361F" stroke-linecap="round" stroke-linejoin="round"/>
</svg>
