<svg width="217" height="186" viewBox="0 0 217 186" fill="none" xmlns="http://www.w3.org/2000/svg">
<path d="M125.221 53.2915C125.979 53.2411 126.5 52.7622 126.871 52.2078C129.479 48.2765 133.224 45.5968 136.927 42.833C139.527 40.8926 141.976 38.7589 144.728 36.9948C147.337 35.3316 150.005 33.8279 152.799 32.5259C158.672 29.7873 164.378 26.654 170.673 24.8564C172.499 24.3355 174.283 23.8315 176.177 23.7643C178.575 23.6803 180.982 23.4703 183.372 23.5963C187.765 23.8315 191.779 25.0748 194.766 28.5945C195.776 29.7873 196.533 31.0894 197.038 32.5763C198.881 37.9777 198.528 43.3455 196.828 48.6797C196.525 49.6373 195.877 50.4941 195.355 51.3762C192.401 56.408 188.833 60.8181 184.264 64.6235C178.297 69.5881 171.801 73.6286 165.11 77.4508C161.736 79.3829 158.412 81.3989 155.113 83.3478C155.172 83.6586 155.18 83.9442 155.222 83.9526C155.559 84.003 155.904 83.9862 156.249 84.003C158.302 84.0618 160.356 84.1458 162.409 84.171C164.807 84.2046 167.206 84.1711 169.604 84.1879C170.462 84.1879 171.329 84.1374 172.171 84.2719C175.697 84.8347 179.24 85.3555 182.741 86.0779C186.25 86.8003 189.793 87.5312 193.184 88.6652C196.247 89.6985 199.142 91.2525 202.088 92.6386C203.788 93.4366 205.353 94.6126 207.12 95.1587C210.461 96.1835 212.615 98.6196 214.635 101.115C217.824 105.046 217.782 112.665 214.542 116.479C211.892 119.595 209.064 122.661 204.68 123.417C197.375 126.551 189.666 126.475 181.95 126.206C178.373 126.08 174.754 126.021 171.363 124.593C165.8 124.14 160.844 121.737 155.769 119.73C154.195 119.108 152.782 118.075 151.301 117.235C150.855 116.983 149.937 117.184 149.963 117.529C149.979 117.856 149.946 118.251 150.122 118.486C152.252 121.359 153.842 124.602 156.409 127.189C158.95 129.76 160.457 133.086 162.485 136.026C164.833 139.428 166.684 143.032 168.266 146.812C169.124 148.862 169.941 150.937 170.589 153.054C172.474 159.245 171.657 165.192 168.779 170.938C167.5 173.492 165.38 175.197 163.208 176.86C162.131 177.683 160.86 178.255 159.682 178.96C156.182 181.069 152.428 181.027 148.768 179.8C144.063 178.229 139.494 176.289 136.001 172.5C135.438 171.887 134.604 171.526 133.948 170.972C131.061 168.544 128.293 166.041 126.298 162.756C124.708 160.135 122.84 157.674 121.19 155.087C120.079 153.348 119.583 151.34 118.96 149.383C117.933 146.14 116.764 142.948 115.577 139.756C115.426 139.361 114.794 138.874 114.424 138.908C114.054 138.941 113.532 139.521 113.423 139.941C112.581 143.242 111.815 146.56 111.041 149.878C109.77 155.288 107.322 160.152 103.972 164.554C101.498 167.813 99.0997 171.123 96.39 174.231C93.4109 177.641 89.7755 180.178 86.2326 182.816C84.2465 184.295 81.7556 185.311 79.1468 185.58C77.6152 185.739 76.0751 185.807 74.5435 185.941C68.2656 186.504 64.1842 183.127 61.062 178.271C59.6819 176.129 58.6889 173.735 57.6201 171.408C57.1909 170.484 56.8543 169.468 56.7533 168.468C56.3157 164.05 55.9286 159.631 55.6341 155.204C55.4995 153.146 55.8697 151.18 56.6776 149.206C57.5191 147.182 57.8137 144.939 58.4869 142.831C59.5725 139.437 60.3215 135.841 62.0046 132.759C65.2613 126.777 68.8042 120.922 73.3233 115.739C74.2153 114.723 74.8381 113.48 75.646 112.388C76.6642 111.018 77.7666 109.708 78.7765 108.33C78.9027 108.154 78.7933 107.558 78.6334 107.474C78.0359 107.154 78.8859 106.986 78.2463 107.23C77.9265 107.356 77.5983 107.465 77.3038 107.642C72.7679 110.405 67.7944 112.237 62.8966 114.202C58.9414 115.79 55.0114 117.42 51.0393 118.982C49.9369 119.419 48.7671 119.763 47.5974 119.931C46.2172 120.133 44.9044 120.444 43.6758 121.082C42.2872 121.805 40.823 122.208 39.2493 122.25C38.576 122.267 37.8523 122.325 37.238 122.561C29.7651 125.467 22.4016 123.745 15.097 121.956C11.8823 121.166 9.33246 119.016 7.30434 116.395C6.47121 115.319 5.8064 114.135 4.63665 113.32C0.0418341 110.136 -0.622984 105.642 0.437359 100.619C1.21158 96.9647 3.29019 94.0498 5.92421 91.5381C8.01965 89.5389 10.3423 87.8 12.7575 86.1619C15.0213 84.6247 17.3019 83.247 19.7676 82.0626C23.0075 80.5085 26.1465 78.7864 29.622 77.7952C34.8817 76.2915 40.1497 74.8803 45.5777 74.0319C52.8402 72.8978 60.1616 72.3602 67.4662 71.6798C67.8701 71.6378 68.0384 71.4109 67.9374 70.9741C67.9038 70.8229 67.8112 70.6801 67.7102 70.5541C67.6092 70.4197 67.4914 70.2685 67.3399 70.2097C62.0298 68.286 57.09 65.5223 51.6957 63.7499C48.0013 62.5402 44.4584 60.7593 41.2858 58.3736C39.6616 57.1472 37.8776 56.0468 36.0178 55.2235C32.1046 53.4931 29.5042 50.3765 26.9459 47.1928C25.8772 45.8656 25.0945 44.3115 23.9837 43.0263C22.7887 41.6318 22.2838 40.0525 22.2417 38.3221C22.1323 33.2315 23.3778 28.5105 26.4242 24.3523C28.2672 21.8406 30.9012 20.8074 33.8887 20.3202C41.2353 19.1273 48.2033 20.421 54.8683 23.4955C60.3131 25.9988 65.6148 28.7541 70.2264 32.7023C72.4144 34.5755 74.9475 36.0372 77.1692 37.8685C79.1299 39.4897 80.813 41.4554 82.7233 43.1439C85.6856 45.7564 88.3869 48.5873 90.6591 51.8214C90.8526 52.0902 91.1135 52.3254 91.3828 52.527C91.5006 52.6194 91.7278 52.6278 91.8793 52.5858C91.9887 52.5522 92.0897 52.3758 92.1149 52.2414C92.1738 51.9054 92.3085 51.5274 92.2075 51.2334C91.5174 49.2677 91.6689 47.1844 91.2818 45.1935C90.1878 39.5401 91.3491 34.0127 91.8288 28.4181C92.258 23.4619 93.453 18.6905 94.3787 13.8435C95.0435 10.3742 96.7518 7.40888 98.7379 4.65357C101.119 1.35224 106.059 -1.05865 111.058 0.470209C116.444 2.11667 120.559 5.06519 122.814 10.349C123.748 12.5331 124.96 14.608 125.735 16.8424C126.399 18.7577 126.879 20.8074 126.988 22.8235C127.216 27.2588 127.359 31.7194 127.157 36.1548C127.014 39.1957 126.265 42.2114 125.743 45.2271C125.272 47.9236 124.893 50.6202 125.28 53.3671C125.028 53.5267 124.666 53.6275 124.548 53.8543C124.439 54.0643 124.59 54.4087 124.632 54.7027C124.817 54.5599 125.095 54.4507 125.154 54.2659C125.246 53.9719 125.196 53.6275 125.213 53.2999L125.221 53.2915ZM50.9046 43.1775C50.8457 42.8499 50.8541 42.5054 50.7279 42.2114C49.6087 39.5317 47.5637 37.5072 45.7796 35.298C45.6282 35.1048 45.1317 35.0459 44.8624 35.13C44.3574 35.2896 44.0713 35.7432 44.1555 36.2808C44.6604 39.7585 47.2439 41.7074 49.7181 43.7235C49.8695 43.8495 50.3156 43.6647 50.6101 43.5639C50.7363 43.5219 50.8121 43.3203 50.913 43.1859L50.9046 43.1775ZM73.9461 141.57C73.7777 146.165 73.3654 149.71 75.6375 153.457C76.2014 149.458 76.235 146.048 73.9461 141.57ZM188.101 36.7344C188.009 36.39 188 36.012 187.824 35.7516C187.664 35.5164 187.327 35.2728 187.066 35.2728C186.788 35.2728 186.326 35.4912 186.258 35.7012C185.88 36.9948 185.568 38.3137 185.282 39.6325C185.156 40.2121 185.526 40.5734 186.039 40.7414C186.654 40.943 186.982 40.4642 187.31 40.0945C188.185 39.1201 188.101 37.9021 188.101 36.7344ZM148.911 116.285C148.784 116.033 148.667 115.765 148.515 115.529C148.507 115.513 148.178 115.613 148.178 115.672C148.162 115.924 148.221 116.176 148.246 116.428C148.473 116.386 148.692 116.336 148.919 116.285H148.911Z" fill="#DA9B92"/>
</svg>
