<svg width="152" height="119" viewBox="0 0 152 119" fill="none" xmlns="http://www.w3.org/2000/svg">
<path d="M0.00728255 102.039C0.0519556 96.575 0.141302 91.1255 0.736942 85.6686C1.69741 76.8598 3.57368 68.3049 6.90927 60.1009C9.24716 54.3453 11.6372 48.6047 14.1016 42.894C14.7568 41.3786 15.7173 39.9751 16.6554 38.609C19.1348 34.9885 21.6737 31.4352 24.4732 28.0162C29.6553 21.6933 36.2669 17.1993 42.7594 12.5113C43.973 11.6304 45.3727 10.981 46.7353 10.3315C49.1923 9.16698 51.8727 8.48766 54.1361 6.89761C54.4935 6.65126 54.9849 6.59154 55.4167 6.44971C58.73 5.38221 61.9986 4.22513 65.2746 3.03819C68.5134 1.85872 71.9532 1.26898 75.4526 0.880797C79.22 0.462755 82.98 0.194014 86.7623 0.0223187C88.579 -0.0597966 90.3808 -0.0374015 92.1529 0.567266C93.1357 0.903192 94.2227 1.02263 95.2725 1.07489C99.8739 1.31377 104.185 2.49324 108.302 4.60585C110.722 5.8525 113.239 6.94986 115.807 7.8382C118.733 8.85345 121.242 10.4808 123.595 12.4143C124.414 13.0861 125.174 13.8475 126.037 14.4522C128.308 16.0348 130.244 17.8712 131.554 20.3794C132.254 21.7082 133.379 22.8056 134.19 24.0896C135.151 25.6124 136.208 27.0606 136.528 28.9642C136.722 30.1064 137.392 31.2485 138.099 32.204C139.633 34.3017 140.779 36.6084 142.001 38.8778C143.37 41.4159 144.569 44.0212 145.366 46.8131C146.244 49.8738 147.235 52.9046 148.277 55.913C149.625 59.8097 149.789 63.9379 150.66 67.9167C152.722 77.3824 151.732 86.96 151.948 96.4929C151.963 97.2468 151.933 98.0456 151.687 98.7398C151.01 100.643 151.039 102.614 150.861 104.577C150.645 106.996 150.436 109.43 149.937 111.789C149.632 113.237 148.865 114.618 148.173 115.962C147.279 117.701 145.813 118.761 143.817 118.791C141.115 118.828 138.449 119.172 135.702 118.843C132.105 118.41 128.442 118.53 124.801 118.492C121.473 118.462 118.138 118.433 114.81 118.604C112.137 118.739 110.097 117.514 108.287 115.88C106.88 114.603 106.411 112.714 106.701 110.856C108.153 101.629 107.036 92.3647 107.267 83.123C107.386 78.42 107.379 73.7021 106.433 69.0589C105.89 66.3939 105.294 63.7289 104.55 61.1161C103.79 58.4586 102.405 56.0996 100.447 54.1214C99.9185 53.5839 99.4271 52.8672 98.7719 52.6209C96.4117 51.7326 94.6694 50.0753 93.0017 48.3061C92.4581 47.7313 91.8401 47.3506 91.0509 47.2759C90.7457 47.2461 90.4106 47.3058 90.15 47.1864C86.0624 45.3724 81.8483 46.2756 77.6639 46.5668C77.0608 46.6116 76.428 46.6489 75.877 46.8728C72.385 48.3136 68.8335 49.6498 65.4533 51.322C61.2764 53.3973 58.0376 56.5176 56.1762 60.922C55.8858 61.6163 55.5805 62.3329 55.1338 62.9301C51.9844 67.1777 50.4953 72.0972 49.4008 77.1584C48.8572 79.6742 48.5669 82.2421 48.1127 84.7728C47.316 89.2742 46.9065 93.798 46.9512 98.374C46.9512 99.128 46.9363 99.9044 46.7874 100.643C46.3332 102.92 46.4598 105.16 46.8246 107.437C47.1895 109.713 47.1001 111.968 45.9684 114.095C44.7994 116.29 43.0572 117.559 40.5704 117.679C38.9101 117.761 37.2348 117.641 35.5745 117.753C31.9559 118 28.33 118.238 24.7189 118.545C19.1497 119.015 13.5209 118.724 7.91441 118.731C6.55188 118.731 5.18935 118.671 3.83427 118.589C1.80165 118.462 0.833734 117.701 0.364667 115.641C0.0966286 114.469 0.0296191 113.244 0.0147281 112.035C-0.029945 108.698 -0.000162953 105.369 -0.000162953 102.032L0.00728255 102.039Z" fill="#B1C1B4"/>
</svg>
