<svg width="82" height="105" viewBox="0 0 82 105" fill="none" xmlns="http://www.w3.org/2000/svg">
<path d="M82.0001 39.7716C81.6339 41.8469 80.9782 43.7776 78.73 44.6452C76.32 45.5808 73.8929 46.5079 71.4914 47.4775C64.866 50.1652 59.6883 54.4945 56.2309 60.8141C55.1578 62.7789 53.8549 64.6245 52.8415 66.6148C50.7721 70.6889 49.9035 75.0693 49.9461 79.6367C49.9802 84.1276 50.0227 88.6185 50.0227 93.1179C50.0227 95.3718 50.2271 97.6002 50.7296 99.8032C51.0532 101.207 50.7806 102.516 49.7673 103.665C48.0385 105.621 44.8791 105.383 43.5932 103.154C43.508 103.001 43.3803 102.865 43.3462 102.704C42.418 98.5614 39.8802 95.2102 37.896 91.5954C37.3084 90.5237 36.9678 89.4095 36.6612 88.2272C35.8437 85.0292 34.5833 82.0352 32.0541 79.7217C31.0407 78.7947 29.9932 77.791 29.329 76.6173C25.846 70.4678 20.0211 68.2479 13.5575 67.1932C10.5002 66.6914 7.3749 66.5468 4.28361 66.2321C3.94297 66.1981 3.5853 66.1725 3.2617 66.0535C1.74586 65.5176 0.408857 64.8202 0.0937668 63C-0.229839 61.1288 0.204474 59.5383 1.72883 58.3815C2.40159 57.8712 3.2106 57.4544 4.01962 57.1908C9.00144 55.5747 12.6633 52.3341 15.5502 48.0644C16.8957 46.0656 18.3179 44.1094 19.7997 42.2041C23.1379 37.9174 25.2158 33.0352 27.0638 27.9745C28.6051 23.7473 29.8655 19.4945 30.7426 15.0717C31.3558 11.9757 31.3302 8.88822 31.458 5.79222C31.5346 3.86999 31.9434 2.42406 33.868 1.68408C34.3364 1.50547 34.7111 1.0802 35.1454 0.80802C37.9556 -0.910084 40.7915 0.187121 41.5068 3.36817C41.9922 5.55407 42.2051 7.79101 42.6139 9.99393C43.4484 14.4678 45.1686 18.5759 47.7916 22.3098C48.0896 22.7351 48.2514 23.322 48.6346 23.6027C51.8877 25.9672 53.7527 29.6416 56.7674 32.2102C60.1908 35.1276 64.0144 36.8712 68.6812 35.4423C69.669 35.1361 70.6994 34.949 71.7299 34.8129C72.3941 34.7193 73.3649 34.5322 73.7056 34.8809C75.6046 36.7947 78.5852 35.2892 80.4417 37.1264C81.1826 37.8578 81.8979 38.6148 82.0001 39.7716Z" fill="#FFD589"/>
</svg>
