<svg width="8" height="5" viewBox="0 0 8 5" fill="none" xmlns="http://www.w3.org/2000/svg">
<path d="M3.7921 4.31667C3.72544 4.31667 3.66434 4.30557 3.60877 4.28333C3.55324 4.2611 3.49767 4.22223 3.4421 4.16667L0.142102 0.866667C0.0421019 0.766667 -0.00509788 0.647233 0.000435454 0.508333C0.00600212 0.369433 0.0587686 0.25 0.158769 0.15C0.258769 0.0500003 0.378235 0 0.517102 0C0.656002 0 0.775435 0.0500003 0.875435 0.15L3.7921 3.08333L6.72544 0.15C6.82544 0.0500003 6.9421 0.00276654 7.07544 0.00833321C7.20877 0.0138999 7.32544 0.0666667 7.42544 0.166667C7.52544 0.266667 7.57544 0.3861 7.57544 0.525C7.57544 0.6639 7.52544 0.783333 7.42544 0.883333L4.1421 4.16667C4.08657 4.22223 4.031 4.2611 3.97544 4.28333C3.9199 4.30557 3.85877 4.31667 3.7921 4.31667Z" fill="#40361F"/>
</svg>
