<svg width="30" height="24" viewBox="0 0 30 24" fill="none" xmlns="http://www.w3.org/2000/svg">
<path d="M3.89286 19.6072C3.89286 20.4407 4.22398 21.2401 4.81338 21.8295C5.40278 22.4189 6.20219 22.75 7.03573 22.75C7.86927 22.75 8.66867 22.4189 9.25807 21.8295C9.84747 21.2401 10.1786 20.4407 10.1786 19.6072M3.89286 19.6072C3.89286 18.7736 4.22398 17.9742 4.81338 17.3848C5.40278 16.7954 6.20219 16.4643 7.03573 16.4643C7.86927 16.4643 8.66867 16.7954 9.25807 17.3848C9.84747 17.9742 10.1786 18.7736 10.1786 19.6072M3.89286 19.6072L0.75 19.6072V2.32143C0.75 1.90466 0.915561 1.50496 1.21026 1.21026C1.50496 0.915562 1.90466 0.75 2.32143 0.75H16.4643V2.32143M19.6073 19.6072L16.4643 19.6072L10.1786 19.6072M19.6073 19.6072C19.6073 20.4407 19.9385 21.2401 20.5279 21.8295C21.1173 22.4189 21.9167 22.75 22.7502 22.75C23.5837 22.75 24.3831 22.4189 24.9725 21.8295C25.562 21.2401 25.8931 20.4407 25.8931 19.6072M19.6073 19.6072C19.6073 19.1944 19.6886 18.7857 19.8466 18.4044C20.0045 18.0231 20.236 17.6767 20.5279 17.3848C20.8197 17.093 21.1662 16.8615 21.5475 16.7035C21.9288 16.5456 22.3375 16.4643 22.7502 16.4643C23.1629 16.4643 23.5716 16.5456 23.9529 16.7035C24.3342 16.8615 24.6807 17.093 24.9725 17.3848C25.2644 17.6767 25.4959 18.0231 25.6538 18.4044C25.8118 18.7857 25.8931 19.1944 25.8931 19.6072M16.4643 2.32143H24.3215L29.0358 10.1786V19.6072L25.8931 19.6072M16.4643 2.32143V10.1786M16.4643 10.1786V19.6072M16.4643 10.1786H29.0358" stroke="#40361F" stroke-width="1.5" stroke-linecap="round" stroke-linejoin="round"/>
</svg>
