<svg width="22" height="26" viewBox="0 0 22 26" fill="none" xmlns="http://www.w3.org/2000/svg">
<path d="M6.97559 11.4167V4.75C6.97559 3.68913 7.39701 2.67172 8.14716 1.92157C8.8973 1.17143 9.91472 0.75 10.9756 0.75C12.0365 0.75 13.0539 1.17143 13.804 1.92157C14.5542 2.67172 14.9756 3.68913 14.9756 4.75V11.4167M3.41699 7.41667H18.5357C18.9201 7.41662 19.3001 7.49972 19.6495 7.66027C19.9988 7.82081 20.3093 8.05501 20.5597 8.3468C20.8101 8.6386 20.9944 8.98108 21.1 9.35078C21.2057 9.72048 21.2301 10.1086 21.1717 10.4887L19.4983 21.358C19.3531 22.3026 18.8744 23.164 18.149 23.7862C17.4236 24.4084 16.4993 24.7503 15.5437 24.75H6.40765C5.45218 24.75 4.52829 24.4079 3.80316 23.7857C3.07802 23.1636 2.59955 22.3024 2.45432 21.358L0.780985 10.4887C0.722543 10.1086 0.746971 9.72048 0.852593 9.35078C0.958215 8.98108 1.14253 8.6386 1.39291 8.3468C1.64329 8.05501 1.95381 7.82081 2.30318 7.66027C2.65254 7.49972 3.0325 7.41662 3.41699 7.41667Z" stroke="#40361F" stroke-width="1.5" stroke-linecap="round" stroke-linejoin="round"/>
</svg>
