<svg width="30" height="24" viewBox="0 0 30 24" fill="none" xmlns="http://www.w3.org/2000/svg">
<path d="M0.75 3.89286C0.75 3.05932 1.08112 2.25992 1.67052 1.67052C2.25992 1.08112 3.05932 0.75 3.89286 0.75H25.8929C26.7264 0.75 27.5258 1.08112 28.1152 1.67052C28.7046 2.25992 29.0357 3.05932 29.0357 3.89286M0.75 3.89286V19.6071C0.75 20.4407 1.08112 21.2401 1.67052 21.8295C2.25992 22.4189 3.05932 22.75 3.89286 22.75H25.8929C26.7264 22.75 27.5258 22.4189 28.1152 21.8295C28.7046 21.2401 29.0357 20.4407 29.0357 19.6071V3.89286M0.75 3.89286L14.8929 13.3212L29.0357 3.89286" stroke="#40361F" stroke-width="1.5" stroke-linecap="round" stroke-linejoin="round"/>
</svg>
