<svg width="13" height="13" viewBox="0 0 13 13" fill="none" xmlns="http://www.w3.org/2000/svg">
<path d="M6.25 12.5C5.38541 12.5 4.57291 12.3359 3.8125 12.0078C3.05209 11.6797 2.39062 11.2344 1.82813 10.6719C1.26563 10.1094 0.820312 9.44791 0.492187 8.6875C0.164062 7.92709 0 7.11459 0 6.25C0 5.38541 0.164062 4.57291 0.492187 3.8125C0.820312 3.05209 1.26563 2.39062 1.82813 1.82813C2.39062 1.26563 3.05209 0.820312 3.8125 0.492187C4.57291 0.164062 5.38541 0 6.25 0C7.11459 0 7.92709 0.164062 8.6875 0.492187C9.44791 0.820312 10.1094 1.26563 10.6719 1.82813C11.2344 2.39062 11.6797 3.05209 12.0078 3.8125C12.3359 4.57291 12.5 5.38541 12.5 6.25C12.5 7.11459 12.3359 7.92709 12.0078 8.6875C11.6797 9.44791 11.2344 10.1094 10.6719 10.6719C10.1094 11.2344 9.44791 11.6797 8.6875 12.0078C7.92709 12.3359 7.11459 12.5 6.25 12.5ZM5.57812 11.5469V10.2656C5.21353 10.2656 4.90625 10.1302 4.65625 9.85938C4.40625 9.58853 4.28125 9.27084 4.28125 8.90625V8.21875L1.07812 5.01562C1.02604 5.22397 0.989584 5.42969 0.96875 5.63281C0.947916 5.83594 0.9375 6.04166 0.9375 6.25C0.9375 7.60416 1.3776 8.78647 2.25781 9.79688C3.13803 10.8073 4.24478 11.3906 5.57812 11.5469ZM10.1719 9.85938C10.401 9.60938 10.6016 9.34375 10.7734 9.0625C10.9453 8.78125 11.0912 8.48697 11.2109 8.17969C11.3307 7.87241 11.4193 7.55728 11.4766 7.23438C11.5338 6.91147 11.5625 6.58334 11.5625 6.25C11.5625 5.14584 11.2604 4.14322 10.6562 3.24219C10.0521 2.34116 9.24478 1.68229 8.23438 1.26562V1.54688C8.23438 1.91147 8.10938 2.22916 7.85938 2.5C7.60938 2.77084 7.30209 2.90625 6.9375 2.90625H5.57812V4.26562C5.57812 4.44272 5.50781 4.58853 5.36719 4.70312C5.22656 4.81772 5.06772 4.875 4.89062 4.875H3.59375V6.25H7.625C7.80209 6.25 7.94791 6.31772 8.0625 6.45312C8.17709 6.58853 8.23438 6.74478 8.23438 6.92188V8.90625H8.90625C9.20834 8.90625 9.47397 8.99478 9.70312 9.17188C9.93228 9.34897 10.0885 9.57812 10.1719 9.85938Z" fill="#40361F"/>
</svg>
