<svg width="16" height="12" viewBox="0 0 16 12" fill="none" xmlns="http://www.w3.org/2000/svg">
<path d="M7.56148 11.3333C6.01494 11.3333 4.68387 10.7755 3.56825 9.6599C2.4526 8.54427 1.89479 7.21321 1.89479 5.66667V4.86979L0.814583 5.95C0.720138 6.04446 0.607987 6.09167 0.478125 6.09167C0.348263 6.09167 0.236112 6.04446 0.141667 5.95C0.0472211 5.85554 0 5.74044 0 5.60469C0 5.46894 0.0472211 5.35383 0.141667 5.25938L2.05417 3.32917C2.16042 3.22292 2.28437 3.16979 2.42604 3.16979C2.56771 3.16979 2.69168 3.22292 2.79793 3.32917L4.72814 5.25938C4.82256 5.35383 4.86981 5.46596 4.86981 5.59583C4.86981 5.72571 4.82256 5.83784 4.72814 5.93229C4.63369 6.02675 4.51858 6.07396 4.38283 6.07396C4.24704 6.07396 4.13194 6.02675 4.03752 5.93229L2.95731 4.86979V5.66667C2.95731 6.92987 3.40887 8.01302 4.312 8.91615C5.21512 9.81927 6.29827 10.2708 7.56148 10.2708C7.79756 10.2708 8.02777 10.2561 8.2521 10.2266C8.47639 10.1971 8.68889 10.1528 8.8896 10.0938C9.03127 10.0583 9.16996 10.0672 9.30575 10.1203C9.4415 10.1734 9.53889 10.2649 9.59793 10.3948C9.65694 10.5247 9.65694 10.6545 9.59793 10.7844C9.53889 10.9142 9.43856 11.0028 9.29689 11.05C9.01356 11.1445 8.72725 11.2153 8.43804 11.2625C8.14879 11.3097 7.8566 11.3333 7.56148 11.3333ZM7.54377 1.0625C7.30764 1.0625 7.07744 1.07727 6.85314 1.10677C6.62881 1.13627 6.41631 1.18054 6.21564 1.23958C6.07398 1.275 5.93231 1.26615 5.79064 1.21302C5.64898 1.1599 5.54861 1.06841 5.4896 0.938542C5.43056 0.808669 5.43056 0.675856 5.4896 0.540104C5.54861 0.404338 5.64306 0.312846 5.77293 0.265625C6.06806 0.171179 6.36025 0.103296 6.6495 0.0619792C6.93871 0.0206586 7.23681 0 7.54377 0C9.09027 0 10.4214 0.557813 11.537 1.67344C12.6526 2.78906 13.2104 4.12013 13.2104 5.66667V6.42812L14.2906 5.34792C14.3851 5.25346 14.4972 5.20625 14.6271 5.20625C14.7569 5.20625 14.8691 5.25346 14.9636 5.34792C15.058 5.44237 15.1052 5.55748 15.1052 5.69323C15.1052 5.82898 15.058 5.94409 14.9636 6.03854L13.0511 7.96875C12.9448 8.075 12.8209 8.12813 12.6792 8.12813C12.5375 8.12813 12.4136 8.075 12.3073 7.96875L10.3948 6.05625C10.3004 5.96179 10.2531 5.84375 10.2531 5.70208C10.2531 5.56042 10.3004 5.44237 10.3948 5.34792C10.4892 5.25346 10.6073 5.20625 10.749 5.20625C10.8906 5.20625 11.0087 5.25346 11.1031 5.34792L12.1479 6.39271V5.66667C12.1479 4.40346 11.6964 3.32031 10.7932 2.41719C9.89012 1.51406 8.80694 1.0625 7.54377 1.0625Z" fill="#40361F"/>
</svg>
