<svg width="13" height="19" viewBox="0 0 13 19" fill="none" xmlns="http://www.w3.org/2000/svg">
<path d="M0.5 17.75V15.8333C0.5 14.8167 0.903868 13.8416 1.62276 13.1228C2.34165 12.4039 3.31667 12 4.33333 12H8.16667C9.18333 12 10.1584 12.4039 10.8772 13.1228C11.5961 13.8416 12 14.8167 12 15.8333V17.75M2.41667 4.33333C2.41667 5.35 2.82053 6.32502 3.53942 7.04391C4.25831 7.7628 5.23334 8.16667 6.25 8.16667C7.26666 8.16667 8.24169 7.7628 8.96058 7.04391C9.67946 6.32502 10.0833 5.35 10.0833 4.33333C10.0833 3.31667 9.67946 2.34165 8.96058 1.62276C8.24169 0.903868 7.26666 0.5 6.25 0.5C5.23334 0.5 4.25831 0.903868 3.53942 1.62276C2.82053 2.34165 2.41667 3.31667 2.41667 4.33333Z" stroke="#40361F" stroke-linecap="round" stroke-linejoin="round"/>
</svg>
